<?xml version="1.0" standalone="no"?>
<!DOCTYPE svg PUBLIC "-//W3C//DTD SVG 20010904//EN"
 "http://www.w3.org/TR/2001/REC-SVG-20010904/DTD/svg10.dtd">
<svg version="1.0" xmlns="http://www.w3.org/2000/svg"
 width="200.000000pt" height="200.000000pt" viewBox="0 0 200.000000 200.000000"
 preserveAspectRatio="xMidYMid meet">

<g transform="translate(0.000000,200.000000) scale(0.100000,-0.100000)"
fill="#000000" stroke="none">
<path d="M990 1670 c-17 -17 -20 -33 -20 -112 0 -92 0 -93 -29 -110 -62 -35
-94 -158 -62 -236 12 -28 11 -39 -9 -92 -12 -33 -26 -63 -30 -65 -7 -5 -64 72
-72 97 -3 7 -16 4 -36 -6 l-32 -17 24 -47 c14 -26 38 -63 54 -82 l29 -34 -62
-151 c-84 -204 -81 -190 -45 -205 34 -14 35 -18 15 -67 -19 -44 -19 -63 -1
-63 8 0 21 19 31 43 9 23 48 119 86 213 l70 172 47 -15 c45 -14 123 -13 179 3
18 5 25 1 33 -22 63 -167 165 -394 176 -394 18 0 18 19 -1 63 -20 48 -20 49
15 69 l29 17 -69 168 -69 168 23 25 c32 35 64 83 75 114 9 23 7 27 -20 42 -17
8 -32 14 -34 12 -1 -2 -12 -21 -23 -44 -19 -38 -49 -72 -56 -63 -1 2 -13 30
-25 61 -22 55 -22 59 -7 104 30 89 14 159 -50 221 l-44 43 0 85 c0 72 -3 88
-20 105 -11 11 -27 20 -35 20 -8 0 -24 -9 -35 -20z m64 -280 c31 -11 66 -65
66 -101 0 -14 -11 -43 -25 -63 -32 -46 -33 -115 -5 -182 25 -57 20 -74 -20
-74 -28 0 -30 2 -30 40 0 29 -4 40 -15 40 -11 0 -15 -11 -15 -40 0 -35 -3 -40
-22 -40 -48 0 -53 13 -30 75 28 72 28 141 2 175 -22 28 -27 98 -10 130 9 18
54 49 72 50 4 0 18 -4 32 -10z"/>
</g>
</svg>
